<svg width="89" height="89" viewBox="0 0 89 89" fill="none" xmlns="http://www.w3.org/2000/svg">
<path d="M44.3333 0.333313C20.0453 0.333313 0.333328 20.0453 0.333328 44.3333C0.333328 68.6213 20.0453 88.3333 44.3333 88.3333H66.3333V79.5333H44.3333C25.2373 79.5333 9.13333 63.4293 9.13333 44.3333C9.13333 25.2373 25.2373 9.13331 44.3333 9.13331C63.4293 9.13331 79.5333 25.2373 79.5333 44.3333V50.6253C79.5333 54.1013 76.4093 57.5333 72.9333 57.5333C69.4573 57.5333 66.3333 54.1013 66.3333 50.6253V44.3333C66.3333 32.1893 56.4773 22.3333 44.3333 22.3333C32.1893 22.3333 22.3333 32.1893 22.3333 44.3333C22.3333 56.4773 32.1893 66.3333 44.3333 66.3333C50.4053 66.3333 55.9493 63.8693 59.9093 59.8653C62.7693 63.7813 67.6973 66.3333 72.9333 66.3333C81.6013 66.3333 88.3333 59.2933 88.3333 50.6253V44.3333C88.3333 20.0453 68.6213 0.333313 44.3333 0.333313ZM44.3333 57.5333C37.0293 57.5333 31.1333 51.6373 31.1333 44.3333C31.1333 37.0293 37.0293 31.1333 44.3333 31.1333C51.6373 31.1333 57.5333 37.0293 57.5333 44.3333C57.5333 51.6373 51.6373 57.5333 44.3333 57.5333Z" fill="black"/>
</svg>
