<svg width="88" height="88" viewBox="0 0 88 88" fill="none" xmlns="http://www.w3.org/2000/svg">
<path d="M44 0.25C19.8398 0.25 0.25 19.8398 0.25 44C0.25 68.1602 19.8398 87.75 44 87.75C68.1602 87.75 87.75 68.1602 87.75 44C87.75 19.8398 68.1602 0.25 44 0.25ZM44 80.3281C23.9414 80.3281 7.67188 64.0586 7.67188 44C7.67188 23.9414 23.9414 7.67188 44 7.67188C64.0586 7.67188 80.3281 23.9414 80.3281 44C80.3281 64.0586 64.0586 80.3281 44 80.3281Z" fill="black"/>
<path d="M39.3125 26.8125C39.3125 28.0557 39.8064 29.248 40.6854 30.1271C41.5645 31.0061 42.7568 31.5 44 31.5C45.2432 31.5 46.4355 31.0061 47.3146 30.1271C48.1936 29.248 48.6875 28.0557 48.6875 26.8125C48.6875 25.5693 48.1936 24.377 47.3146 23.4979C46.4355 22.6189 45.2432 22.125 44 22.125C42.7568 22.125 41.5645 22.6189 40.6854 23.4979C39.8064 24.377 39.3125 25.5693 39.3125 26.8125ZM46.3438 37.75H41.6562C41.2266 37.75 40.875 38.1016 40.875 38.5312V65.0938C40.875 65.5234 41.2266 65.875 41.6562 65.875H46.3438C46.7734 65.875 47.125 65.5234 47.125 65.0938V38.5312C47.125 38.1016 46.7734 37.75 46.3438 37.75Z" fill="black"/>
</svg>
