<svg width="88" height="102" viewBox="0 0 88 102" fill="none" xmlns="http://www.w3.org/2000/svg">
<path d="M23.6923 3.38462L21.8172 0.568615L22.6702 0H23.6923V3.38462ZM3.38461 16.9231H0V15.1089L1.50954 14.1071L3.38461 16.9231ZM10.1538 81.2308H64.3077V88H10.1538V81.2308ZM67.6923 77.8462V10.1538H74.4615V77.8462H67.6923ZM64.3077 6.76923H23.6923V0H64.3077V6.76923ZM6.76923 16.9231V77.8462H0V16.9231H6.76923ZM25.5674 6.20062L5.2597 19.7391L1.50954 14.1071L21.8172 0.568615L25.5674 6.20062ZM64.3077 81.2308C65.2053 81.2308 66.0662 80.8742 66.701 80.2394C67.3357 79.6047 67.6923 78.7438 67.6923 77.8462H74.4615C74.4615 80.5391 73.3918 83.1218 71.4875 85.026C69.5833 86.9302 67.0007 88 64.3077 88V81.2308ZM10.1538 88C7.46088 88 4.8782 86.9302 2.97399 85.026C1.06978 83.1218 0 80.5391 0 77.8462H6.76923C6.76923 78.7438 7.12582 79.6047 7.76056 80.2394C8.39529 80.8742 9.25619 81.2308 10.1538 81.2308V88ZM67.6923 10.1538C67.6923 9.25619 67.3357 8.3953 66.701 7.76056C66.0662 7.12582 65.2053 6.76923 64.3077 6.76923V0C67.0007 0 69.5833 1.06978 71.4875 2.97399C73.3918 4.87821 74.4615 7.46088 74.4615 10.1538H67.6923ZM88 23.6923V91.3846H81.2308V23.6923H88ZM77.8462 101.538H23.6923V94.7692H77.8462V101.538ZM77.8462 20.3077H71.0769V13.5385H77.8462V20.3077ZM13.5385 91.3846V84.6154H20.3077V91.3846H13.5385ZM23.6923 101.538C20.9993 101.538 18.4167 100.469 16.5125 98.5645C14.6082 96.6603 13.5385 94.0776 13.5385 91.3846H20.3077C20.3077 92.2823 20.6643 93.1432 21.299 93.7779C21.9338 94.4127 22.7947 94.7692 23.6923 94.7692V101.538ZM88 91.3846C88 94.0776 86.9302 96.6603 85.026 98.5645C83.1218 100.469 80.5391 101.538 77.8462 101.538V94.7692C78.7438 94.7692 79.6047 94.4127 80.2394 93.7779C80.8742 93.1432 81.2308 92.2823 81.2308 91.3846H88ZM81.2308 23.6923C81.2308 22.7947 80.8742 21.9338 80.2394 21.299C79.6047 20.6643 78.7438 20.3077 77.8462 20.3077V13.5385C80.5391 13.5385 83.1218 14.6082 85.026 16.5125C86.9302 18.4167 88 20.9993 88 23.6923H81.2308Z" fill="black"/>
<path d="M23.7352 22L21.4723 24.2735L24.8393 27.6594L27.0989 25.3859L23.7336 22H23.7352ZM53.2664 22L49.8995 25.3859L52.1607 27.6594L55.5261 24.2751L53.2648 22H53.2664ZM38.5 23.009C37.9696 23.0155 37.4329 23.0462 36.8929 23.1125C36.8768 23.1125 36.8607 23.1092 36.8446 23.1125C30.3261 23.8644 25.1382 29.1632 24.2366 35.6925C23.5166 40.9476 25.6702 45.7128 29.2589 48.7818C30.7269 50.0423 31.7198 51.772 32.0714 53.6812V63.383H35.7357C36.295 64.3484 37.3155 65 38.5 65C39.6845 65 40.705 64.3484 41.2643 63.383H44.9286V56.9152H45.0796V54.9942C45.0796 52.6237 46.3043 50.2339 48.2939 48.376C50.9554 45.695 52.9643 41.8871 52.9643 37.5132C52.9643 29.5254 46.4296 22.9346 38.5 23.009ZM38.5 26.2429C44.7116 26.1556 49.75 31.2717 49.75 37.5132C49.75 40.8991 48.1911 43.8808 46.0327 46.0508L46.0841 46.1025C43.9392 48.0925 42.5522 50.7736 42.1627 53.6828H35.133C34.7795 50.9114 33.5982 48.2288 31.3659 46.3046C28.5261 43.8792 26.8337 40.2248 27.3995 36.0983C28.1018 31.0049 32.2096 26.9091 37.2432 26.348C37.6588 26.2897 38.0773 26.2552 38.4968 26.2445L38.5 26.2429ZM16 37.5132V40.7471H20.8214V37.5132H16ZM56.1786 37.5132V40.7471H61V37.5132H56.1786ZM24.8393 50.6009L21.4739 53.9852L23.7352 56.2603L27.0973 52.8744L24.8393 50.6009ZM52.1607 50.6009L49.9011 52.8744L53.2648 56.2603L55.5261 53.9852L52.1607 50.6009ZM35.2857 56.9168H41.7143V60.1507H35.2857V56.9168Z" fill="black"/>
</svg>
